<html>
<head>
<meta charset="UTF-8">
<meta name="viewport" content="width=device-width, initial-scale=1.0"/>

<style>
.comment
{
    padding-left: 20px;
    margin-top: 4px;
    margin-right: 4px;
    margin-bottom: 4px;
    border: 2px #000 solid;
}
.submission
{
    border: 4px #00f solid;
    padding-left: 20px;
}
.hidden
{
    display: none;
}
</style>
</head>
<body><div class="submission" id="t3_71pxen">
    <p class="userinfo">
        <a href="https://www.reddit.com/u/Ed_ButteredToast">Ed_ButteredToast</a>
        <span class="score"> | 13 points</span>
        <span class="timestamp"> | Sep 22 2017 09:39:23</span>
    </p>
    <strong>[MUSIC] Macklemore - 'Good Old Days (ft. Kesha)' from the album 'GEMINI' (2017) [FLAC] [16bit 44.1kHz 2CH] [MP3 320kbps] [24.5MB/9.42MB]</strong>
    <p><h6>https://itunes.apple.com/us/album/gemini/id1272352884</h6>
<h1><a href="http://links.snahp.it/226_">LINK HERE</a></h1>
<p><strong>Note</strong>: <em>Password to the Snahp.it link</em> <strong><em>and</em></strong> <em>the rar files is the same and is the name of the album i.e</em> <strong><em>"gemini"</em></strong> <em>spelled backwards e.g WEBSITE = ETISBEW. Also when you access the MEGA link, replace "xxxx" with "mega". There are 2 folders, one for 16 bit FLAC and one for MP3 with 2 rar files within each. Use the password (same for all parts) and extracting part 1 will automatically extract the other part too and in the end you'll be left with 1 FLAC file, 1 MP3 file and two .txt files</em></p>
<h1>Link Encoded in Base64</h1>
<p>1= <code>aHR0cHM6Ly94eHh4Lm56LyNGIVV6aFVEYXJU</code></p>
<p>2= <code>IVpTMU1MWGZZWll6TUVxM2huajdMRFE</code></p>
<p><strong>How to decode?</strong></p>
<p><em>Go to https://www.base64decode.org and paste 1 and 2 (without any space) where it says "Type or (paste) here..." and click decode. You'll receive a link in the lower box. In that link, replace xxxx with MEGA.</em></p>
<hr>
<h1><code>General</code></h1>
<p><code>Complete name                  : Good Old Days (ft. Kesha).flac</code></p>
<p><code>Format                         : FLAC</code></p>
<p><code>Format/Info                    : Free Lossless Audio Codec</code></p>
<p><code>File size                      : 24.5 MiB</code></p>
<p><code>Duration                       : 4mn 0s</code></p>
<p><code>Overall bit rate mode          : Variable</code></p>
<p><code>Overall bit rate               : 853 Kbps</code></p>
<p><code>Album                          : GEMINI</code></p>
<p><code>Album/Performer                : Macklemore</code></p>
<p><code>Part                           : 1</code></p>
<p><code>Part/Total                     : 1</code></p>
<p><code>Track name                     : Good Old Days (feat. Kesha)</code></p>
<p><code>Track name/Position            : 6</code></p>
<p><code>Track name/Total               : 16</code></p>
<p><code>Performer                      : Macklemore</code></p>
<p><code>Genre                          : Rap</code></p>
<p><code>Recorded date                  : 2017</code></p>
<p><code>Copyright                      : ℗ 2017, Bendo LLC</code></p>
<p><code>Cover                          : Yes</code></p>
<p><code>Cover type                     : Cover (front)</code></p>
<p><code>Cover MIME                     : image/jpeg</code></p>
<h1><code>Audio</code></h1>
<p><code>Format                         : FLAC</code></p>
<p><code>Format/Info                    : Free Lossless Audio Codec</code></p>
<p><code>Duration                       : 4mn 0s</code></p>
<p><code>Bit rate mode                  : Variable</code></p>
<p><code>Bit rate                       : 837 Kbps</code></p>
<p><code>Channel(s)                     : 2 channels</code></p>
<p><code>Sampling rate                  : 44.1 KHz</code></p>
<p><code>Bit depth                      : 16 bits</code></p>
<p><code>Stream size                    : 24.0 MiB (98%)</code></p>
<p><code>Writing library                : libFLAC 1.3.1 (UTC 2014-11-25)</code></p>
<hr>
<h1><code>General</code></h1>
<p><code>Complete name                  : Good Old Days (ft. Kesha).mp3</code></p>
<p><code>Format                         : MPEG Audio</code></p>
<p><code>File size                      : 9.63 MiB</code></p>
<p><code>Duration                       : 4mn 0s</code></p>
<p><code>Overall bit rate mode          : Constant</code></p>
<p><code>Overall bit rate               : 320 Kbps</code></p>
<p><code>Album                          : GEMINI</code></p>
<p><code>Album/Performer                : Macklemore</code></p>
<p><code>Part/Position                  : 1</code></p>
<p><code>Part/Total                     : 1</code></p>
<p><code>Track name                     : Good Old Days (feat. Kesha)</code></p>
<p><code>Track name/Position            : 6</code></p>
<p><code>Track name/Total               : 16</code></p>
<p><code>Performer                      : Macklemore</code></p>
<p><code>Genre                          : Rap</code></p>
<p><code>Recorded date                  : 2017</code></p>
<p><code>Writing library                : LAME3.99r</code></p>
<p><code>Copyright                      : ℗ 2017, Bendo LLC</code></p>
<p><code>Cover                          : Yes</code></p>
<p><code>Cover type                     : Cover (front)</code></p>
<p><code>Cover MIME                     : image/jpeg</code></p>
<h1><code>Audio</code></h1>
<p><code>Format                         : MPEG Audio</code></p>
<p><code>Format version                 : Version 1</code></p>
<p><code>Format profile                 : Layer 3</code></p>
<p><code>Mode                           : Joint stereo</code></p>
<p><code>Duration                       : 4mn 0s</code></p>
<p><code>Bit rate mode                  : Constant</code></p>
<p><code>Bit rate                       : 320 Kbps</code></p>
<p><code>Channel(s)                     : 2 channels</code></p>
<p><code>Sampling rate                  : 44.1 KHz</code></p>
<p><code>Compression mode               : Lossy</code></p>
<p><code>Stream size                    : 9.18 MiB (95%)</code></p>
<p><code>Writing library                : LAME3.99r</code></p>
<p><code>Encoding settings              : -m j -V 4 -q 0 -lowpass 20.5</code></p></p>
    <p class="toolbar">
        <a href="https://www.reddit.com/r/megalinks/comments/71pxen">permalink</a>
    </p>
</div>
<div class="comment" id="t1_dncsh6f">
    <p class="userinfo">
        <a
        class="toggle_hide_button"
        href="javascript:void(0)"
        onclick="toggle_collapse(this.parentElement.parentElement)">[-]
        </a>
        <a href="https://www.reddit.com/u/Iyedr">Iyedr</a>
        <span class="score"> | 1 points</span>
        <span class="timestamp"> | Sep 22 2017 14:11:59</span>
    </p>
    <div class="collapsible">
        <p>Thanks!</p>
<p>Waiting for the full album though! Hype!</p>
        <p class="toolbar">
            <a href="https://www.reddit.com/r/megalinks/comments/71pxen/_/dncsh6f">permalink</a>
        </p>
        <div class="comment" id="t1_dncu0tp">
    <p class="userinfo">
        <a
        class="toggle_hide_button"
        href="javascript:void(0)"
        onclick="toggle_collapse(this.parentElement.parentElement)">[-]
        </a>
        <a href="https://www.reddit.com/u/Ed_ButteredToast">Ed_ButteredToast</a>
        <span class="score"> | 2 points</span>
        <span class="timestamp"> | Sep 22 2017 14:40:54</span>
    </p>
    <div class="collapsible">
        <blockquote>
<p>waiting </p>
</blockquote>
<p>Lucky for you I got my hands on the entire album in 16 bit FLAC and 320kbps mp3 just now. I'm away from my PC for now but it will be up in 6-7 hours. </p>
        <p class="toolbar">
            <a href="https://www.reddit.com/r/megalinks/comments/71pxen/_/dncu0tp">permalink</a>
        </p>
        
    </div>
</div>
    </div>
</div>
</body>

<script>
function toggle_collapse(comment_div)
{
    var button = comment_div.getElementsByClassName("toggle_hide_button")[0];
    var collapsible = comment_div.getElementsByClassName("collapsible")[0];
    if (collapsible.classList.contains("hidden"))
    {
        collapsible.classList.remove("hidden");
        button.innerText = "[-]";
    }
    else
    {
        collapsible.classList.add("hidden");
        button.innerText = "[+]";
    }
}
</script>
</html>
